<?xml version="1.0" standalone="no"?><!DOCTYPE svg PUBLIC "-//W3C//DTD SVG 1.1//EN" "http://www.w3.org/Graphics/SVG/1.1/DTD/svg11.dtd"><svg t="1554707057560" class="icon" style="" viewBox="0 0 1024 1024" version="1.1" xmlns="http://www.w3.org/2000/svg" p-id="5735" xmlns:xlink="http://www.w3.org/1999/xlink" width="200" height="200"><defs><style type="text/css"></style></defs><path d="M257.127753 168.41116l-27.066079-6.014684 6.014684 27.066079-13.533039 24.058737 27.066079 1.503671 18.044053 21.051395 10.525697-27.066079 25.562409-12.029369L282.690162 180.440529l-3.007343-28.569751L257.127753 168.41116z m577.409692 708.229075c-166.907489 147.359765-408.998532 156.381791-587.935389 37.591777l-27.066079 13.533039c189.462555 135.330396 452.604993 129.315712 633.045521-30.073421 109.767988-96.234949 166.907489-230.061674 169.914831-365.392071l-28.56975 12.029369c-6.014684 123.301028-60.146843 243.594714-159.389134 332.311307zM189.462555 145.856094c166.907489-147.359765 408.998532-156.381791 587.935389-36.088106l27.066079-13.533039c-189.462555-135.330396-452.604993-129.315712-633.045521 30.073421C63.154185 222.543319 4.511013 356.370044 1.503671 491.700441l27.066079-13.53304c7.518355-123.301028 61.650514-243.594714 160.892805-332.311307z m255.624082-15.036711l27.06608-1.503671-12.029369-24.058737 9.022026-27.066079-27.066079 4.511013-22.555066-15.036711-4.511013 27.06608-22.555066 19.547723 24.058737 12.029369 9.022026 25.562408 19.547724-21.051395zM305.245228 278.179148c75.183554-67.665198 175.929515-88.716593 269.157121-69.168869l36.088106-18.044053C502.226138 156.381791 378.92511 177.433186 287.201175 257.127753c-43.606461 39.095448-75.183554 87.212922-93.227607 138.337739l36.088106-18.044053c18.044053-36.088106 43.606461-70.67254 75.183554-99.242291z m288.704845-180.440528l-28.56975 3.007342 15.036711 22.555066-4.511013 27.066079 27.066079-7.518355 24.058737 13.533039 1.503671-27.066079 21.051395-18.044053-27.066079-9.022026-12.029369-24.058737-16.540382 19.547724z m-466.138032 236.076358l-27.066079 3.007342 15.036711 24.058737-6.014685 27.06608 25.562408-7.518356 24.058738 13.53304 1.503671-28.569751L180.440529 345.844347l-25.562409-10.525698-10.525697-25.562408-16.540382 24.058737z m299.230543 592.446402l28.569751-1.503671-13.53304-24.058737 7.518356-25.562408-27.06608 4.511013-24.058737-15.036711-3.007342 27.06608-22.555066 16.540381 25.562408 12.029369 10.525698 25.562408 18.044052-19.547724z m365.392071-96.234948l27.066079 6.014684-7.518355-27.066079 13.53304-24.058737-27.06608-1.503672-18.044053-21.051395-10.525697 25.562409-24.058737 12.029368 21.051395 18.044053 3.007342 27.066079 22.555066-15.03671z m120.293686-156.381792l27.066079-3.007342-15.036711-24.058737 6.014685-27.066079-25.562409 7.518355-22.555066-13.53304-1.503671 28.569751-19.547724 18.044053 25.562408 10.525697 10.525698 25.562408 15.036711-22.555066zM615.001468 875.136564l-27.066079 1.503671 12.029369 24.058737-9.022027 27.066079 27.06608-4.511013 22.555066 15.036711 4.511013-27.066079 22.555066-16.540382-24.058737-12.029369-9.022027-25.562408-19.547724 18.044053z m177.433187-231.565345c-16.540382 37.591777-42.10279 72.176211-75.183554 100.745962-75.183554 67.665198-175.929515 88.716593-269.157122 69.168869l-36.088105 18.044053c108.264317 34.584435 231.565345 13.53304 323.28928-66.161527 43.606461-39.095448 75.183554-87.212922 93.227607-138.337739l-36.088106 16.540382zM230.061674 529.292217l189.462555-111.271659 13.53304 24.058737-90.220265 54.132159 9.022027 15.03671c7.518355 15.036711 15.036711 28.56975 21.051395 42.10279l114.279001-67.665198 13.53304 24.058737L422.531571 556.358297l48.117475 82.701909c4.511013 9.022026 12.029369 10.525698 19.547723 6.014684l30.073422-16.540382c4.511013-3.007342 7.518355-7.518355 9.022026-12.029368 0-6.014684-4.511013-18.044053-15.03671-39.095448l27.066079-6.014685c13.53304 28.56975 19.547724 46.613803 16.540382 55.63583-3.007342 7.518355-9.022026 15.036711-19.547724 21.051395l-42.10279 24.058737c-19.547724 10.525698-34.584435 6.014684-46.613803-13.533039L398.472834 571.395007l-16.540382 9.022027c9.022026 25.562408 13.53304 48.117474 13.53304 69.168869 0 37.591777-13.53304 75.183554-39.095448 111.271659l-27.066079-13.533039c25.562408-37.591777 37.591777-72.176211 36.088105-105.256975-1.503671-16.540382-4.511013-31.577093-10.525697-46.613804l-81.198238 48.117475-13.53304-24.058737 85.709252-51.124817c-6.014684-13.53304-13.53304-28.56975-21.051395-42.10279l-7.518356-15.036711-72.176211 42.10279-15.036711-24.058737zM526.284875 338.325991c9.022026 6.014684 18.044053 13.53304 27.066079 21.051395L601.468429 330.807636l13.533039 24.058737-121.797356 70.67254-13.53304-24.058737 49.621145-28.56975c-7.518355-6.014684-16.540382-10.525698-25.562408-15.036711l22.555066-19.547724z m30.073422 75.183554c3.007342 30.073421 1.503671 58.643172-3.007343 85.709251l-28.56975-3.007342c6.014684-25.562408 6.014684-52.628488 3.007342-79.694567l28.569751-3.007342z m13.533039 61.650514c16.540382 3.007342 30.073421 4.511013 40.599119 7.518355-1.503671-15.036711-3.007342-28.56975-6.014684-42.10279l27.066079-3.007342c4.511013 19.547724 7.518355 37.591777 9.022027 52.628487 16.540382 4.511013 31.577093 9.022026 46.613803 13.53304l-6.014684 30.073422c-15.036711-6.014684-28.56975-10.525698-40.599119-13.53304-1.503671 33.080764-10.525698 61.650514-27.06608 88.716593l-28.56975-13.53304c15.036711-25.562408 24.058737-54.132159 27.066079-84.20558-19.547724-4.511013-34.584435-7.518355-46.613803-9.022026l4.511013-27.066079z m57.139501-49.621146c-19.547724-7.518355-37.591777-13.53304-57.139501-18.044053l6.014685-24.058737c15.036711 3.007342 34.584435 7.518355 57.1395 15.036711l-6.014684 27.066079zM666.126285 405.991189c0 9.022026 0 19.547724-1.503671 28.569751l-27.066079-10.525698c1.503671-39.095448-9.022026-84.20558-30.073422-133.826725l27.066079-10.525698c6.014684 15.036711 10.525698 28.56975 15.036711 40.599119l69.168869-40.599119 13.53304 24.058738-18.044053 12.029368c21.051395 40.599119 33.080764 79.694567 33.080764 118.790015 27.066079 13.53304 54.132159 21.051395 81.198238 21.051395l-1.503671 30.073421c-27.066079-1.503671-54.132159-9.022026-81.198238-22.555066-4.511013 30.073421-13.53304 60.146843-31.577093 88.716593l-27.066079-15.03671c19.547724-28.56975 30.073421-58.643172 31.577092-90.220265-18.044053-10.525698-34.584435-24.058737-52.628487-40.599119z m-7.518355-57.1395l4.511013 18.044053c18.044053 19.547724 37.591777 36.088106 57.1395 49.621145-3.007342-28.56975-12.029369-58.643172-27.066079-87.212922l-34.584434 19.547724z" p-id="5736"></path></svg>